<svg width="29.000000" height="29.000000" viewBox="0 0 29 29" fill="none" xmlns="http://www.w3.org/2000/svg" xmlns:xlink="http://www.w3.org/1999/xlink">
	<desc>
			Created with Pixso.
	</desc>
	<defs>
		<clipPath id="clip1_243">
			<rect id="Frame" width="29.000000" height="29.000000" fill="white" fill-opacity="0"/>
		</clipPath>
		<linearGradient id="paint_linear_1_245_0" x1="29.740108" y1="12.400826" x2="15.331276" y2="24.914198" gradientUnits="userSpaceOnUse">
			<stop offset="0.180000" stop-color="#0052CC"/>
			<stop offset="1.000000" stop-color="#2684FF"/>
		</linearGradient>
	</defs>
	<g clip-path="url(#clip1_243)">
		<path id="Vector" d="M0.941025 6.10352e-05C0.807022 -0.00354004 0.673874 0.0264282 0.550125 0.0881348C0.426376 0.149841 0.314774 0.241821 0.222473 0.358215C0.134842 0.468811 0.0699158 0.602234 0.0328064 0.748047C-0.00430298 0.89386 -0.0125427 1.04803 0.00869751 1.1983L3.95627 27.8265C4.01666 28.1633 4.173 28.4645 4.3985 28.6784C4.62398 28.8923 4.90457 29.0057 5.19218 28.999L24.1144 28.999C24.3299 29.009 24.5414 28.9274 24.7114 28.7685C24.8815 28.6096 24.999 28.3837 25.0432 28.1309L28.9881 1.20367C29.0089 1.05371 29.0005 0.900024 28.9634 0.754639C28.9263 0.609253 28.8616 0.476135 28.7743 0.365784C28.682 0.249329 28.5704 0.157349 28.4466 0.0956421C28.3229 0.0339966 28.1897 0.00396729 28.0557 0.00756836L0.941025 6.10352e-05ZM17.5495 19.2452L11.5101 19.2452L9.87447 9.74414L19.0136 9.74414L17.5495 19.2452Z" fill="#2684FF" fill-opacity="1.000000" fill-rule="nonzero"/>
		<path id="Vector" d="M27.7318 9.74414L19.013 9.74414L17.5498 19.2452L11.5104 19.2452L4.37869 28.6537C4.61006 28.8732 4.89635 28.9933 5.19156 28.9946L24.1192 28.9946C24.3347 29.0047 24.5462 28.923 24.7162 28.7642C24.8862 28.6052 25.0037 28.3794 25.0479 28.1266L27.7318 9.74414Z" fill="url(#paint_linear_1_245_0)" fill-opacity="1.000000" fill-rule="nonzero"/>
	</g>
</svg>
