<svg width="24.000000" height="24.000000" viewBox="0 0 24 24" fill="none" xmlns="http://www.w3.org/2000/svg" xmlns:xlink="http://www.w3.org/1999/xlink">
	<desc>
			Created with Pixso.
	</desc>
	<defs>
		<clipPath id="clip1_1046">
			<rect id="Frame" width="24.000000" height="24.000000" fill="white" fill-opacity="0"/>
		</clipPath>
		<linearGradient id="paint_linear_1_1047_0" x1="20.948437" y1="3.602343" x2="2.247188" y2="21.645479" gradientUnits="userSpaceOnUse">
			<stop offset="0.050000" stop-color="#FFF44F"/>
			<stop offset="0.110000" stop-color="#FFE847"/>
			<stop offset="0.220000" stop-color="#FFC830"/>
			<stop offset="0.370000" stop-color="#FF980E"/>
			<stop offset="0.400000" stop-color="#FF8B16"/>
			<stop offset="0.460000" stop-color="#FF672A"/>
			<stop offset="0.530000" stop-color="#FF3647"/>
			<stop offset="0.700000" stop-color="#E31587"/>
		</linearGradient>
		<radialGradient id="paint_radial_1_1048_0" cx="0.000000" cy="0.000000" r="1.000000" gradientUnits="userSpaceOnUse" gradientTransform="translate(20.0841 2.58103) rotate(0) scale(23.4848 23.4849)">
			<stop offset="0.130000" stop-color="#FFBD4F"/>
			<stop offset="0.190000" stop-color="#FFAC31"/>
			<stop offset="0.250000" stop-color="#FF9D17"/>
			<stop offset="0.280000" stop-color="#FF980E"/>
			<stop offset="0.400000" stop-color="#FF563B"/>
			<stop offset="0.470000" stop-color="#FF3750"/>
			<stop offset="0.710000" stop-color="#F5156C"/>
			<stop offset="0.780000" stop-color="#EB0878"/>
			<stop offset="0.860000" stop-color="#E50080"/>
		</radialGradient>
		<radialGradient id="paint_radial_1_1049_0" cx="0.000000" cy="0.000000" r="1.000000" gradientUnits="userSpaceOnUse" gradientTransform="translate(11.5027 12.182) rotate(0) scale(23.4848 23.4849)">
			<stop offset="0.300000" stop-color="#960E18"/>
			<stop offset="0.350000" stop-color="#B11927" stop-opacity="0.741176"/>
			<stop offset="0.430000" stop-color="#DB293D" stop-opacity="0.341176"/>
			<stop offset="0.500000" stop-color="#F5334B" stop-opacity="0.090196"/>
			<stop offset="0.530000" stop-color="#FF3750" stop-opacity="0.000000"/>
		</radialGradient>
		<radialGradient id="paint_radial_1_1050_0" cx="0.000000" cy="0.000000" r="1.000000" gradientUnits="userSpaceOnUse" gradientTransform="translate(14.3344 -2.74863) rotate(0) scale(17.0138 17.0138)">
			<stop offset="0.130000" stop-color="#FFF44F"/>
			<stop offset="0.250000" stop-color="#FFDC3E"/>
			<stop offset="0.510000" stop-color="#FF9D12"/>
			<stop offset="0.530000" stop-color="#FF980E"/>
		</radialGradient>
		<radialGradient id="paint_radial_1_1051_0" cx="0.000000" cy="0.000000" r="1.000000" gradientUnits="userSpaceOnUse" gradientTransform="translate(8.90532 18.3164) rotate(0) scale(11.182 11.182)">
			<stop offset="0.350000" stop-color="#3A8EE6"/>
			<stop offset="0.470000" stop-color="#5C79F0"/>
			<stop offset="0.670000" stop-color="#9059FF"/>
			<stop offset="1.000000" stop-color="#C139E6"/>
		</radialGradient>
		<radialGradient id="paint_radial_1_1052_0" cx="0.000000" cy="0.000000" r="1.000000" gradientUnits="userSpaceOnUse" gradientTransform="translate(11.8399 9.39073) rotate(-13.8971) scale(5.9243 6.95965)">
			<stop offset="0.210000" stop-color="#9059FF" stop-opacity="0.000000"/>
			<stop offset="0.280000" stop-color="#8C4FF3" stop-opacity="0.058824"/>
			<stop offset="0.750000" stop-color="#7716A8" stop-opacity="0.450980"/>
			<stop offset="0.970000" stop-color="#6E008B" stop-opacity="0.600000"/>
		</radialGradient>
		<radialGradient id="paint_radial_1_1053_0" cx="0.000000" cy="0.000000" r="1.000000" gradientUnits="userSpaceOnUse" gradientTransform="translate(11.2059 1.61997) rotate(0) scale(8.04469 8.04469)">
			<stop stop-color="#FFE226"/>
			<stop offset="0.120000" stop-color="#FFDB27"/>
			<stop offset="0.300000" stop-color="#FFC82A"/>
			<stop offset="0.500000" stop-color="#FFA930"/>
			<stop offset="0.730000" stop-color="#FF7E37"/>
			<stop offset="0.790000" stop-color="#FF7139"/>
		</radialGradient>
		<radialGradient id="paint_radial_1_1054_0" cx="0.000000" cy="0.000000" r="1.000000" gradientUnits="userSpaceOnUse" gradientTransform="translate(17.5294 -3.4823) rotate(0) scale(34.3223 34.3223)">
			<stop offset="0.110000" stop-color="#FFF44F"/>
			<stop offset="0.460000" stop-color="#FF980E"/>
			<stop offset="0.620000" stop-color="#FF5634"/>
			<stop offset="0.720000" stop-color="#FF3647"/>
			<stop offset="0.900000" stop-color="#E31587"/>
		</radialGradient>
		<radialGradient id="paint_radial_1_1055_0" cx="0.000000" cy="0.000000" r="1.000000" gradientUnits="userSpaceOnUse" gradientTransform="translate(14.2117 0.267604) rotate(84.2321) scale(25.0176 16.4367)">
			<stop stop-color="#FFF44F"/>
			<stop offset="0.060000" stop-color="#FFE847"/>
			<stop offset="0.170000" stop-color="#FFC830"/>
			<stop offset="0.300000" stop-color="#FF980E"/>
			<stop offset="0.360000" stop-color="#FF8B16"/>
			<stop offset="0.450000" stop-color="#FF672A"/>
			<stop offset="0.570000" stop-color="#FF3647"/>
			<stop offset="0.740000" stop-color="#E31587"/>
		</radialGradient>
		<radialGradient id="paint_radial_1_1056_0" cx="0.000000" cy="0.000000" r="1.000000" gradientUnits="userSpaceOnUse" gradientTransform="translate(11.0166 4.59953) rotate(0) scale(21.4275 21.4275)">
			<stop offset="0.140000" stop-color="#FFF44F"/>
			<stop offset="0.480000" stop-color="#FF980E"/>
			<stop offset="0.590000" stop-color="#FF5634"/>
			<stop offset="0.660000" stop-color="#FF3647"/>
			<stop offset="0.900000" stop-color="#E31587"/>
		</radialGradient>
		<radialGradient id="paint_radial_1_1057_0" cx="0.000000" cy="0.000000" r="1.000000" gradientUnits="userSpaceOnUse" gradientTransform="translate(16.673 5.85375) rotate(0) scale(23.4525 23.4525)">
			<stop offset="0.090000" stop-color="#FFF44F"/>
			<stop offset="0.230000" stop-color="#FFE141"/>
			<stop offset="0.510000" stop-color="#FFAF1E"/>
			<stop offset="0.630000" stop-color="#FF980E"/>
		</radialGradient>
		<linearGradient id="paint_linear_1_1058_0" x1="20.723436" y1="3.505784" x2="4.811257" y2="19.418451" gradientUnits="userSpaceOnUse">
			<stop offset="0.170000" stop-color="#FFF44F" stop-opacity="0.800000"/>
			<stop offset="0.270000" stop-color="#FFF44F" stop-opacity="0.631373"/>
			<stop offset="0.490000" stop-color="#FFF44F" stop-opacity="0.219608"/>
			<stop offset="0.600000" stop-color="#FFF44F" stop-opacity="0.000000"/>
		</linearGradient>
	</defs>
	<g clip-path="url(#clip1_1046)">
		<path id="Vector" d="M22.4395 7.79907C21.9501 6.62109 20.9583 5.34937 20.1797 4.94775C20.8134 6.19043 21.18 7.43677 21.3201 8.3667C21.3201 8.3667 21.3201 8.37329 21.3225 8.3855C20.0489 5.21021 17.8889 3.92944 16.125 1.14185C16.0355 1.00122 15.9464 0.860596 15.8592 0.710205C15.81 0.625244 15.7701 0.54834 15.7355 0.47583C15.6624 0.334717 15.6059 0.185791 15.5672 0.0319824C15.5675 0.0246582 15.5651 0.017334 15.5604 0.0117188C15.5557 0.00610352 15.5491 0.00244141 15.5419 0.00146484C15.535 -0.000488281 15.5277 -0.000488281 15.5208 0.00146484C15.5189 0.00219727 15.5172 0.00341797 15.5156 0.00463867C15.5128 0.00463867 15.51 0.00805664 15.5072 0.00878906L15.5119 0.00292969C12.682 1.6604 11.722 4.72632 11.6339 6.26074C10.5031 6.33789 9.42181 6.75439 8.53125 7.45557C8.43817 7.37671 8.34082 7.30322 8.23969 7.23511C7.98303 6.33667 7.97217 5.38574 8.20825 4.48169C7.05096 5.00903 6.15094 5.84106 5.49658 6.57739L5.49139 6.57739C5.04468 6.01172 5.07611 4.14551 5.10138 3.7561C5.09625 3.73169 4.76862 3.92627 4.72638 3.95581C4.33221 4.23706 3.96375 4.55249 3.62531 4.89893C3.24017 5.28931 2.88837 5.71118 2.57343 6.1604C1.84894 7.18701 1.33514 8.34717 1.06171 9.57373C1.05658 9.59814 1.05188 9.62354 1.04669 9.64819C1.02563 9.74707 0.949219 10.2437 0.935608 10.3513L0.935608 10.3762C0.835999 10.8892 0.773987 11.4087 0.75 11.9307L0.75 11.9883C0.75 18.2095 5.79376 23.2532 12.015 23.2532C17.587 23.2532 22.2131 19.208 23.1192 13.8943C23.1379 13.7502 23.1534 13.605 23.1703 13.4597C23.3943 11.5276 23.1454 9.49683 22.4395 7.79907ZM9.45514 16.6172C9.50763 16.6421 9.55737 16.6697 9.61127 16.6941L9.61877 16.6987C9.56482 16.6726 9.51001 16.6453 9.45563 16.6172L9.45514 16.6172ZM21.3234 8.39062L21.3234 8.37988L21.3234 8.39209L21.3234 8.39062Z" fill="url(#paint_linear_1_1047_0)" fill-opacity="1.000000" fill-rule="nonzero"/>
		<path id="Vector" d="M22.4395 7.79907C21.9501 6.62109 20.9583 5.34937 20.1797 4.94775C20.8134 6.19043 21.18 7.43677 21.3201 8.3667L21.3201 8.38989C22.3833 11.2717 21.8039 14.2024 20.9695 15.9929C19.6786 18.7632 16.5535 21.603 11.6611 21.4646C6.3797 21.3147 1.72357 17.3906 0.854065 12.2556C0.695618 11.4451 0.854065 11.0339 0.933777 10.3765C0.836731 10.8831 0.799683 11.0298 0.751404 11.9307L0.751404 11.9883C0.751404 18.2097 5.79517 23.2534 12.0164 23.2534C17.5884 23.2534 22.2145 19.208 23.1206 13.8943C23.1394 13.7505 23.1548 13.6052 23.1717 13.4597C23.3943 11.5276 23.1454 9.49707 22.4395 7.79907Z" fill="url(#paint_radial_1_1048_0)" fill-opacity="1.000000" fill-rule="nonzero"/>
		<path id="Vector" d="M22.4395 7.79907C21.9501 6.62109 20.9583 5.34937 20.1797 4.94775C20.8134 6.19043 21.18 7.43677 21.3201 8.3667L21.3201 8.38989C22.3833 11.2717 21.8039 14.2024 20.9695 15.9929C19.6786 18.7632 16.5535 21.603 11.6611 21.4646C6.3797 21.3147 1.72357 17.3906 0.854065 12.2556C0.695618 11.4451 0.854065 11.0339 0.933777 10.3765C0.836731 10.8831 0.799683 11.0298 0.751404 11.9307L0.751404 11.9883C0.751404 18.2097 5.79517 23.2534 12.0164 23.2534C17.5884 23.2534 22.2145 19.208 23.1206 13.8943C23.1394 13.7505 23.1548 13.6052 23.1717 13.4597C23.3943 11.5276 23.1454 9.49707 22.4395 7.79907Z" fill="url(#paint_radial_1_1049_0)" fill-opacity="1.000000" fill-rule="nonzero"/>
		<path id="Vector" d="M16.965 9.12305C16.9898 9.14038 17.0118 9.15771 17.0353 9.17505C16.7526 8.67285 16.4003 8.21338 15.9891 7.81006C12.4875 4.30835 15.0712 0.217041 15.5067 0.0090332L15.5114 0.00292969C12.6815 1.6604 11.7216 4.72656 11.6334 6.26074C11.7646 6.25195 11.8954 6.24048 12.0291 6.24048C14.1407 6.24048 15.9802 7.4021 16.965 9.12305Z" fill="url(#paint_radial_1_1050_0)" fill-opacity="1.000000" fill-rule="nonzero"/>
		<path id="Vector" d="M12.0361 9.82202C12.0178 10.1033 11.0278 11.0691 10.6814 11.0691C7.47797 11.0691 6.95813 13.0068 6.95813 13.0068C7.09875 14.6389 8.23596 15.9829 9.61169 16.6941C9.67456 16.7263 9.73779 16.7554 9.79919 16.7844C9.90936 16.8313 10.02 16.8782 10.1302 16.9199C10.602 17.0864 11.0961 17.1812 11.5959 17.2012C17.2106 17.4646 18.2991 10.4878 14.2467 8.46191C15.2841 8.28125 16.3613 8.69897 16.9626 9.12134C15.9783 7.40063 14.1384 6.23901 12.0267 6.23901C11.8931 6.23901 11.7623 6.25024 11.6311 6.25928C10.5011 6.3374 9.4209 6.75439 8.53125 7.45532C8.70331 7.60132 8.89734 7.79517 9.3056 8.19751C10.0716 8.95312 12.0319 9.73071 12.0361 9.82202Z" fill="url(#paint_radial_1_1051_0)" fill-opacity="1.000000" fill-rule="nonzero"/>
		<path id="Vector" d="M12.0361 9.82202C12.0178 10.1033 11.0278 11.0691 10.6814 11.0691C7.47797 11.0691 6.95813 13.0068 6.95813 13.0068C7.09875 14.6389 8.23596 15.9829 9.61169 16.6941C9.67456 16.7263 9.73779 16.7554 9.79919 16.7844C9.90936 16.8313 10.02 16.8782 10.1302 16.9199C10.602 17.0864 11.0961 17.1812 11.5959 17.2012C17.2106 17.4646 18.2991 10.4878 14.2467 8.46191C15.2841 8.28125 16.3613 8.69897 16.9626 9.12134C15.9783 7.40063 14.1384 6.23901 12.0267 6.23901C11.8931 6.23901 11.7623 6.25024 11.6311 6.25928C10.5011 6.3374 9.4209 6.75439 8.53125 7.45532C8.70331 7.60132 8.89734 7.79517 9.3056 8.19751C10.0716 8.95312 12.0319 9.73071 12.0361 9.82202Z" fill="url(#paint_radial_1_1052_0)" fill-opacity="1.000000" fill-rule="nonzero"/>
		<path id="Vector" d="M8.00763 7.08081C8.09906 7.13989 8.17407 7.1897 8.242 7.23511C7.98535 6.33667 7.97455 5.38574 8.21063 4.48169C7.05328 5.00903 6.15326 5.84106 5.4989 6.57739C5.55188 6.57617 7.18591 6.54663 8.00763 7.08081Z" fill="url(#paint_radial_1_1053_0)" fill-opacity="1.000000" fill-rule="nonzero"/>
		<path id="Vector" d="M0.854126 12.2556C1.72363 17.3906 6.3797 21.3145 11.6649 21.4646C16.5573 21.6028 19.6805 18.7632 20.9733 15.9929C21.8077 14.2017 22.3871 11.2715 21.3239 8.38965L21.3239 8.36816C21.3239 8.37109 21.3239 8.37476 21.3263 8.38696C21.7256 10.9963 20.3986 13.5244 18.3239 15.2339C18.3218 15.2388 18.3198 15.2437 18.3179 15.2485C14.2749 18.5405 10.4063 17.2346 9.62299 16.7017C9.5686 16.6753 9.51379 16.6482 9.45941 16.6201C7.10205 15.4951 6.12848 13.3457 6.3371 11.5042C4.34723 11.5042 3.66846 9.82495 3.66846 9.82495C3.66846 9.82495 5.45532 8.55103 7.81036 9.65918C9.99146 10.6855 12.0399 9.82544 12.0399 9.82495C12.0356 9.73364 10.0754 8.95361 9.31079 8.20044C8.90253 7.7981 8.7085 7.604 8.53644 7.45825C8.44336 7.37964 8.34601 7.30615 8.24487 7.23804C8.17786 7.19116 8.10425 7.14429 8.0105 7.08374C7.18878 6.54932 5.55475 6.57886 5.50079 6.58032L5.49567 6.58032C5.04895 6.01465 5.08032 4.14844 5.10565 3.75903C5.10052 3.73462 4.77283 3.9292 4.73065 3.95874C4.33649 4.23975 3.96802 4.55542 3.62958 4.90186C3.24445 5.29224 2.89258 5.71411 2.5777 6.16309C1.85321 7.18994 1.33942 8.3501 1.06598 9.57666C1.05707 9.59814 0.656311 11.3479 0.854126 12.2556Z" fill="url(#paint_radial_1_1054_0)" fill-opacity="1.000000" fill-rule="nonzero"/>
		<path id="Vector" d="M15.989 7.80981C16.4003 8.21338 16.7526 8.67285 17.0353 9.1748C17.0939 9.21875 17.1502 9.26587 17.204 9.31543C19.7578 11.6667 18.4219 14.9954 18.3201 15.2344C20.3948 13.5249 21.7219 10.9968 21.3224 8.38745C20.0489 5.21021 17.8889 3.92944 16.125 1.14185C16.0355 1.00122 15.9464 0.860596 15.8592 0.710205C15.81 0.625244 15.7701 0.54834 15.7354 0.47583C15.6624 0.334717 15.6059 0.185791 15.5671 0.0319824C15.5674 0.0246582 15.5651 0.017334 15.5604 0.0117188C15.5557 0.00610352 15.5491 0.00244141 15.5419 0.00146484C15.5349 -0.000488281 15.5276 -0.000488281 15.5208 0.00146484C15.5189 0.00219727 15.5172 0.00341797 15.5156 0.00463867C15.5128 0.00463867 15.5099 0.00805664 15.5071 0.00878906C15.0712 0.217041 12.4875 4.30835 15.989 7.80981Z" fill="url(#paint_radial_1_1055_0)" fill-opacity="1.000000" fill-rule="nonzero"/>
		<path id="Vector" d="M17.2032 9.31323C17.1493 9.26367 17.093 9.21655 17.0344 9.17261C17.0114 9.15527 16.9875 9.13794 16.9641 9.12061C16.3627 8.69873 15.2855 8.28052 14.2482 8.46118C18.3 10.4871 17.212 17.4639 11.5974 17.2004C11.0975 17.1804 10.6034 17.0857 10.1316 16.9192C10.0214 16.8779 9.91083 16.8325 9.80066 16.7837C9.73694 16.7546 9.67365 16.7256 9.61316 16.6934L9.62067 16.698C10.4039 17.2324 14.2725 18.5383 18.3155 15.2449C18.3155 15.2449 18.3179 15.2388 18.3216 15.2302C18.4219 14.9954 19.7579 11.6667 17.2032 9.31323Z" fill="url(#paint_radial_1_1056_0)" fill-opacity="1.000000" fill-rule="nonzero"/>
		<path id="Vector" d="M6.95813 13.0068C6.95813 13.0068 7.47797 11.0691 10.6814 11.0691C11.0278 11.0691 12.0178 10.1025 12.0361 9.82227C12.0544 9.54199 9.98767 10.6829 7.80658 9.65625C5.45154 8.5481 3.66467 9.82227 3.66467 9.82227C3.66467 9.82227 4.34344 11.5012 6.33325 11.5012C6.12469 13.343 7.09827 15.4902 9.45563 16.6172C9.50812 16.6421 9.5578 16.6697 9.61169 16.6941C8.2359 15.9844 7.10016 14.6392 6.95813 13.0068Z" fill="url(#paint_radial_1_1057_0)" fill-opacity="1.000000" fill-rule="nonzero"/>
		<path id="Vector" d="M22.4395 7.79907C21.9501 6.62109 20.9583 5.34937 20.1797 4.94775C20.8134 6.19043 21.18 7.43677 21.3201 8.3667C21.3201 8.3667 21.3201 8.37329 21.3225 8.3855C20.0489 5.21021 17.8889 3.92944 16.125 1.14185C16.0355 1.00122 15.9464 0.860596 15.8592 0.710205C15.81 0.625244 15.7701 0.54834 15.7355 0.47583C15.6624 0.334717 15.6059 0.185791 15.5672 0.0319824C15.5675 0.0246582 15.5651 0.017334 15.5604 0.0117188C15.5557 0.00610352 15.5491 0.00244141 15.5419 0.00146484C15.535 -0.000488281 15.5277 -0.000488281 15.5208 0.00146484C15.5189 0.00219727 15.5172 0.00341797 15.5156 0.00463867C15.5128 0.00463867 15.51 0.00805664 15.5072 0.00878906L15.5119 0.00292969C12.682 1.6604 11.722 4.72632 11.6339 6.26074C11.7651 6.25171 11.8959 6.24048 12.0295 6.24048C14.1412 6.24048 15.9807 7.4021 16.9655 9.1228C16.3641 8.70093 15.2869 8.28271 14.2495 8.46338C18.3014 10.4893 17.2134 17.4661 11.5988 17.2026C11.0989 17.1826 10.6048 17.0879 10.133 16.9214C10.0228 16.8801 9.91217 16.8347 9.802 16.7859C9.73828 16.7568 9.67499 16.7278 9.6145 16.6956L9.62201 16.7002C9.56763 16.6738 9.51282 16.6467 9.45844 16.6187C9.51093 16.6436 9.56061 16.6711 9.6145 16.6956C8.23596 15.9844 7.10016 14.6392 6.95813 13.0068C6.95813 13.0068 7.47797 11.0691 10.6814 11.0691C11.0278 11.0691 12.0178 10.1025 12.0361 9.82227C12.0319 9.73071 10.0715 8.95068 9.30701 8.19751C8.89874 7.79541 8.70471 7.60132 8.53265 7.45557C8.43958 7.37671 8.34222 7.30322 8.24109 7.23511C7.98444 6.33667 7.97357 5.38574 8.20972 4.48169C7.05237 5.00903 6.15234 5.84106 5.49799 6.57739L5.4928 6.57739C5.04608 6.01172 5.07751 4.14551 5.10278 3.7561C5.09766 3.73169 4.77002 3.92627 4.72778 3.95581C4.33362 4.23706 3.96515 4.55249 3.62671 4.89893C3.24158 5.28931 2.88977 5.71118 2.57483 6.1604C1.85034 7.18701 1.33655 8.34717 1.06311 9.57373C1.05798 9.59814 1.05328 9.62354 1.0481 9.64819C1.02704 9.74707 0.931396 10.2507 0.918274 10.3584C0.830505 10.8787 0.774292 11.4036 0.75 11.9307L0.75 11.9883C0.75 18.2095 5.79376 23.2532 12.015 23.2532C17.587 23.2532 22.2131 19.208 23.1192 13.8943C23.1379 13.7502 23.1534 13.605 23.1703 13.4597C23.3943 11.5276 23.1454 9.49683 22.4395 7.79907ZM21.322 8.37744L21.322 8.38965L21.322 8.37744Z" fill="url(#paint_linear_1_1058_0)" fill-opacity="1.000000" fill-rule="nonzero"/>
	</g>
</svg>
