<svg width="24.000000" height="24.000000" viewBox="0 0 24 24" fill="none" xmlns="http://www.w3.org/2000/svg" xmlns:xlink="http://www.w3.org/1999/xlink">
	<desc>
			Created with Pixso.
	</desc>
	<defs>
		<clipPath id="clip1_60">
			<rect id="Frame" width="24.000000" height="24.000000" fill="white" fill-opacity="0"/>
		</clipPath>
		<linearGradient id="paint_linear_1_61_0" x1="3.450001" y1="3.450005" x2="21.107002" y2="22.660810" gradientUnits="userSpaceOnUse">
			<stop stop-color="#FFAD33"/>
			<stop offset="1.000000" stop-color="#FF8A00"/>
		</linearGradient>
	</defs>
	<g clip-path="url(#clip1_60)">
		<path id="Vector" d="M12.0575 0C9.19507 -0.00292969 6.42529 1.03516 4.24426 2.92871C2.06323 4.82227 0.61377 7.44727 0.155396 10.3335C-0.302856 13.2192 0.26001 16.1777 1.74316 18.6782C3.22632 21.1792 5.53296 23.0586 8.24951 23.98C8.85583 24.0933 9.07019 23.708 9.07019 23.3833C9.07019 23.0586 9.07019 22.3184 9.07019 21.291C5.70581 22.0386 4.99597 19.6372 4.99597 19.6372C4.77283 18.8926 4.29858 18.2529 3.65759 17.832C2.57068 17.0767 3.74634 17.0767 3.74634 17.0767C4.12744 17.1318 4.49121 17.2744 4.81018 17.4941C5.12915 17.7139 5.39502 18.0054 5.58752 18.3457C5.7511 18.6484 5.97168 18.9155 6.23657 19.1313C6.50146 19.3472 6.80554 19.5073 7.1311 19.6025C7.45679 19.6982 7.79761 19.7266 8.13428 19.6875C8.47083 19.6479 8.79639 19.541 9.09241 19.3726C9.13879 18.7515 9.40112 18.1675 9.83191 17.7261C7.15515 17.4165 4.34534 16.3589 4.34534 11.6841C4.3269 10.4629 4.76904 9.28076 5.5802 8.3833C5.21887 7.32178 5.26111 6.15967 5.69849 5.12842C5.69849 5.12842 6.71143 4.7959 9.01111 6.38965C10.9858 5.83594 13.0701 5.83594 15.0448 6.38965C17.3444 4.7959 18.35 5.12842 18.35 5.12842C18.7935 6.14893 18.8462 7.30225 18.4979 8.36084C19.309 9.2583 19.7511 10.4399 19.7328 11.6616C19.7328 16.3892 16.9156 17.4243 14.2314 17.7036C14.5192 17.999 14.7415 18.3545 14.8831 18.7451C15.0247 19.1362 15.0824 19.5537 15.0522 19.9692C15.0522 21.6157 15.0522 22.9453 15.0522 23.3452C15.0522 23.7456 15.2666 24.0552 15.8804 23.9346C18.566 22.9888 20.838 21.104 22.295 18.6133C23.752 16.1221 24.3002 13.1855 23.8428 10.3218C23.3854 7.45801 21.9518 4.85156 19.7953 2.96289C17.6388 1.07422 14.8982 0.0249023 12.0575 0Z" fill="url(#paint_linear_1_61_0)" fill-opacity="1.000000" fill-rule="evenodd"/>
	</g>
</svg>
