<svg width="24.000000" height="24.000000" viewBox="0 0 24 24" fill="none" xmlns="http://www.w3.org/2000/svg" xmlns:xlink="http://www.w3.org/1999/xlink">
	<desc>
			Created with Pixso.
	</desc>
	<defs>
		<clipPath id="clip1_68">
			<rect id="Frame" width="24.000000" height="24.000000" fill="white" fill-opacity="0"/>
		</clipPath>
		<linearGradient id="paint_linear_1_69_0" x1="3.449995" y1="3.450001" x2="21.106997" y2="22.660801" gradientUnits="userSpaceOnUse">
			<stop stop-color="#FFAD33"/>
			<stop offset="1.000000" stop-color="#FF8A00"/>
		</linearGradient>
	</defs>
	<g clip-path="url(#clip1_68)">
		<path id="Vector" d="M0 12C0 5.37256 5.37256 0 12 0C18.6274 0 24 5.37256 24 12C24 18.6274 18.6274 24 12 24C5.37256 24 0 18.6274 0 12ZM11.6406 9.75391L11.6658 10.1689L11.2461 10.1182C9.71838 9.92334 8.38379 9.26221 7.25061 8.15234L6.69666 7.60156L6.55396 8.0083C6.25183 8.91504 6.44482 9.87256 7.07434 10.5166C7.41016 10.8721 7.33459 10.9233 6.75549 10.7114C6.55396 10.6436 6.37769 10.5928 6.36096 10.6182C6.30212 10.6772 6.50366 11.4487 6.66309 11.7534C6.88135 12.1772 7.32617 12.5923 7.81311 12.8384L8.22437 13.0332L7.73755 13.0415C7.26746 13.0415 7.25061 13.0503 7.30103 13.228C7.46887 13.7788 8.13196 14.3638 8.87061 14.6177L9.39111 14.7959L8.93787 15.0669C8.26636 15.457 7.47729 15.6772 6.68823 15.6938C6.31055 15.7026 6 15.7363 6 15.7617C6 15.8467 7.02405 16.3213 7.62 16.5073C9.40784 17.0586 11.5315 16.8213 13.1263 15.8804C14.2595 15.2109 15.3926 13.8804 15.9214 12.5923C16.2068 11.9062 16.4922 10.6519 16.4922 10.0503C16.4922 9.66064 16.5175 9.60986 16.9874 9.14355C17.2644 8.87256 17.5247 8.57568 17.575 8.49121C17.6589 8.33008 17.6505 8.33008 17.2224 8.47412C16.509 8.72852 16.4083 8.69434 16.7607 8.31299C17.021 8.04199 17.3315 7.55029 17.3315 7.40625C17.3315 7.38086 17.2057 7.42334 17.063 7.49951C16.9119 7.58447 16.576 7.71143 16.3243 7.7876L15.8711 7.93164L15.4598 7.65234C15.2332 7.49951 14.9142 7.33008 14.7463 7.2793C14.3182 7.16064 13.6635 7.17773 13.2773 7.31299C12.2281 7.69434 11.5651 8.67773 11.6406 9.75391Z" fill="url(#paint_linear_1_69_0)" fill-opacity="1.000000" fill-rule="evenodd"/>
	</g>
</svg>
