<svg width="29.000000" height="29.000000" viewBox="0 0 29 29" fill="none" xmlns="http://www.w3.org/2000/svg" xmlns:xlink="http://www.w3.org/1999/xlink">
	<desc>
			Created with Pixso.
	</desc>
	<defs>
		<clipPath id="clip1_246">
			<rect id="Frame" width="29.000000" height="29.000000" fill="white" fill-opacity="0"/>
		</clipPath>
	</defs>
	<g clip-path="url(#clip1_246)">
		<path id="Vector" d="M28.9478 16.582L27.3247 11.1609L24.1073 0.415771C24.0649 0.293335 23.9922 0.188538 23.8985 0.114746C23.8048 0.0409546 23.6944 0.00152588 23.5815 0.00152588C23.4685 0.00152588 23.3581 0.0409546 23.2645 0.114746C23.1708 0.188538 23.0981 0.293335 23.0557 0.415771L19.8382 11.1609L9.16064 11.1609L5.94321 0.415771C5.9008 0.293335 5.82811 0.188538 5.73444 0.114746C5.64076 0.0409546 5.53037 0.00152588 5.41741 0.00152588C5.30446 0.00152588 5.19407 0.0409546 5.1004 0.114746C5.00672 0.188538 4.93402 0.293335 4.89162 0.415771L1.67419 11.1609L0.0544739 16.582C-0.0165482 16.826 -0.0156097 17.0908 0.0571365 17.334C0.129875 17.5773 0.270233 17.7851 0.455811 17.9242L14.4999 29.001L28.5439 17.9242C28.7295 17.7851 28.8699 17.5773 28.9426 17.334C29.0153 17.0908 29.0163 16.826 28.9453 16.582L28.9478 16.582Z" fill="#FC6D26" fill-opacity="1.000000" fill-rule="evenodd"/>
		<path id="Vector" d="M14.5004 29.0001L19.8397 11.156L9.16035 11.156L14.5004 28.9961L14.5004 29.0001Z" fill="#E24329" fill-opacity="1.000000" fill-rule="evenodd"/>
		<path id="Vector" d="M14.5004 29.001L9.16035 11.1599L1.67729 11.1599L14.5004 29.001Z" fill="#FC6D26" fill-opacity="1.000000" fill-rule="evenodd"/>
		<path id="Vector" d="M1.67645 11.1599L0.054184 16.581C-0.0168381 16.825 -0.0158997 17.0897 0.0568466 17.333C0.129585 17.5763 0.269943 17.7841 0.455521 17.9232L14.4996 28.9999L1.67645 11.1599Z" fill="#FCA326" fill-opacity="1.000000" fill-rule="evenodd"/>
		<path id="Vector" d="M1.67729 11.1599L9.16119 11.1599L5.94376 0.414734C5.90136 0.292297 5.82867 0.1875 5.73499 0.113708C5.64132 0.039917 5.53093 0.000488281 5.41797 0.000488281C5.30501 0.000488281 5.19463 0.039917 5.10095 0.113708C5.00728 0.1875 4.93458 0.292297 4.89217 0.414734L1.67729 11.1599Z" fill="#E24329" fill-opacity="1.000000" fill-rule="evenodd"/>
		<path id="Vector" d="M14.5004 29.001L19.8405 11.1609L27.3244 11.1609L14.5004 29.001Z" fill="#FC6D26" fill-opacity="1.000000" fill-rule="evenodd"/>
		<path id="Vector" d="M27.3236 11.1599L28.9467 16.581C29.0177 16.825 29.0167 17.0897 28.944 17.333C28.8713 17.5763 28.7309 17.7841 28.5453 17.9232L14.5004 28.9999L27.3236 11.1599Z" fill="#FCA326" fill-opacity="1.000000" fill-rule="evenodd"/>
		<path id="Vector" d="M27.3235 11.1599L19.8397 11.1599L23.0571 0.414734C23.0995 0.292297 23.1722 0.1875 23.2659 0.113708C23.3595 0.039917 23.4699 0.000488281 23.5829 0.000488281C23.6958 0.000488281 23.8062 0.039917 23.8999 0.113708C23.9936 0.1875 24.0663 0.292297 24.1087 0.414734L27.3261 11.1599L27.3235 11.1599Z" fill="#E24329" fill-opacity="1.000000" fill-rule="evenodd"/>
	</g>
</svg>
