<svg width="29.000000" height="29.000000" viewBox="0 0 29 29" fill="none" xmlns="http://www.w3.org/2000/svg" xmlns:xlink="http://www.w3.org/1999/xlink">
	<desc>
			Created with Pixso.
	</desc>
	<defs>
		<clipPath id="clip1_241">
			<rect id="Frame" width="29.000000" height="29.000000" fill="white" fill-opacity="0"/>
		</clipPath>
	</defs>
	<g clip-path="url(#clip1_241)">
		<path id="Vector" d="M14.4998 0C11.0567 0 7.72586 1.25623 5.10341 3.54382C2.48096 5.83142 0.737991 9.00116 0.186401 12.4858C-0.365189 15.9705 0.310577 19.5426 2.09279 22.5632C3.875 25.5837 6.64735 27.8555 9.91379 28.972C10.6391 29.1019 10.9073 28.6562 10.9073 28.2657C10.9073 27.9125 10.8891 26.7377 10.8891 25.4966C7.24611 26.1842 6.30307 24.5858 6.01328 23.7496C5.69035 22.9357 5.17882 22.2149 4.52296 21.6494C4.01543 21.371 3.29013 20.6833 4.50475 20.6647C4.96898 20.7164 5.41415 20.8823 5.80237 21.1483C6.19058 21.4144 6.51035 21.7726 6.73444 22.1927C6.93272 22.5579 7.19934 22.8795 7.51903 23.1389C7.83873 23.3983 8.2052 23.5905 8.59746 23.7044C8.98972 23.8184 9.40004 23.8519 9.80493 23.8029C10.2098 23.754 10.6013 23.6237 10.957 23.4194C11.0197 22.6637 11.3481 21.9572 11.881 21.4312C8.65198 21.0594 5.28302 19.7776 5.28302 14.0908C5.26369 12.6126 5.79695 11.1829 6.77335 10.0951C6.32996 8.81091 6.38177 7.40161 6.91824 6.15533C6.91824 6.15533 8.13286 5.76483 10.9057 7.68335C13.2784 7.01428 15.7833 7.01428 18.1561 7.68335C20.9289 5.75043 22.1435 6.15533 22.1435 6.15533C22.68 7.40161 22.7318 8.81091 22.2884 10.0951C23.2678 11.181 23.8015 12.612 23.7787 14.0908C23.7787 19.7963 20.3891 21.0594 17.1634 21.4312C17.5094 21.7908 17.7759 22.2226 17.9448 22.6972C18.1136 23.1718 18.1809 23.678 18.142 24.1816C18.142 26.1698 18.1238 27.7682 18.1238 28.27C18.1238 28.6605 18.3954 29.1248 19.1174 28.9763C22.3802 27.8525 25.1471 25.5762 26.9238 22.5536C28.7005 19.5311 29.3712 15.9595 28.8162 12.4766C28.2612 8.99377 26.5166 5.82672 23.894 3.5412C21.2715 1.25562 17.9418 0.000488281 14.4998 0L14.4998 0Z" fill="#fff" fill-opacity="1.000000" fill-rule="evenodd"/>
	</g>
</svg>
