<svg width="24.000000" height="25.000000" viewBox="0 0 24 25" fill="none" xmlns="http://www.w3.org/2000/svg" xmlns:xlink="http://www.w3.org/1999/xlink">
	<desc>
			Created with Pixso.
	</desc>
	<defs>
		<clipPath id="clip1_76">
			<rect id="Frame" width="24.000000" height="24.000000" fill="white" fill-opacity="0"/>
		</clipPath>
		<linearGradient id="paint_linear_1_78_0" x1="17.557997" y1="3.628869" x2="6.356000" y2="21.339870" gradientUnits="userSpaceOnUse">
			<stop stop-color="#FFB45B"/>
			<stop offset="1.000000" stop-color="#FF8A00"/>
		</linearGradient>
	</defs>
	<g clip-path="url(#clip1_76)">
		<path id="Vector" d="M14.07 1.19482C14.2254 1.46533 14.3257 1.76367 14.3652 2.07324C14.4047 2.38281 14.3826 2.69678 14.3001 2.99756C14.2177 3.29834 14.0765 3.58008 13.8848 3.82568C13.6931 4.07178 13.4546 4.27734 13.183 4.43066L6.073 8.4707C5.98099 8.52295 5.90442 8.59863 5.85101 8.68994C5.79764 8.78125 5.76935 8.88525 5.76901 8.99072L5.76901 15.334C5.76935 15.4395 5.79764 15.5435 5.85101 15.6348C5.90442 15.7261 5.98099 15.8018 6.073 15.854L11.701 19.0527C11.7921 19.1045 11.8952 19.1318 12 19.1318C12.1048 19.1318 12.2079 19.1045 12.299 19.0527L17.927 15.855C18.0192 15.8027 18.0958 15.7271 18.1492 15.6353C18.2026 15.5439 18.2308 15.4399 18.231 15.334L18.231 11.3896L13.171 14.228C12.6204 14.5371 11.97 14.6157 11.3616 14.4473C10.7531 14.2783 10.236 13.876 9.923 13.3276C9.76929 13.0566 9.67075 12.7578 9.63306 12.4482C9.59537 12.1387 9.61926 11.8247 9.70337 11.5244C9.78748 11.2241 9.93015 10.9438 10.1232 10.6987C10.3162 10.4541 10.5557 10.25 10.828 10.0977L18.067 6.03564C20.272 4.7998 23 6.38281 23 8.90088L23 15.8149C23 17.4351 22.127 18.9297 20.713 19.7339L14.252 23.4048C13.5655 23.7949 12.7895 24 12 24C11.2105 24 10.4345 23.7949 9.74799 23.4048L3.28699 19.7339C2.59341 19.3413 2.01636 18.7715 1.61462 18.083C1.21286 17.3945 1.00079 16.6118 1 15.8149L1 8.50977C1 6.88965 1.87299 5.39502 3.28699 4.5918L10.817 0.312012C11.366 0 12.0161 -0.0825195 12.6255 0.0830078C13.2348 0.248535 13.7541 0.647949 14.07 1.19482Z" fill="url(#paint_linear_1_78_0)" fill-opacity="1.000000" fill-rule="evenodd"/>
	</g>
</svg>
