<svg width="28.000000" height="28.000000" viewBox="0 0 28 28" fill="none" xmlns="http://www.w3.org/2000/svg" xmlns:xlink="http://www.w3.org/1999/xlink">
	<desc>
			Created with Pixso.
	</desc>
	<defs>
		<clipPath id="clip1_850">
			<rect id="Frame" width="28.000000" height="28.000000" fill="white" fill-opacity="0"/>
		</clipPath>
	</defs>
	<rect id="Frame" width="28.000000" height="28.000000" fill="#FFFFFF" fill-opacity="0"/>
	<g clip-path="url(#clip1_850)">
		<path id="Vector" d="M0.879395 0.291504L0.869019 0.291504C0.743439 0.291992 0.619446 0.323242 0.505554 0.382812C0.391663 0.442383 0.290527 0.528809 0.209106 0.63623C0.127655 0.744141 0.0678406 0.870117 0.0337219 1.00586C-0.000396729 1.14209 -0.00802612 1.28467 0.0114136 1.42432L3.69702 26.5996C3.79141 27.2334 4.28088 27.7021 4.85229 27.708L22.5369 27.708C22.7448 27.7104 22.9465 27.6289 23.1057 27.4785C23.2649 27.3281 23.371 27.1187 23.4049 26.8882L27.0905 1.4292C27.1099 1.28955 27.1023 1.14697 27.0683 1.01123C27.0342 0.875 26.9745 0.749023 26.8932 0.641602C26.8118 0.53418 26.7108 0.447266 26.5971 0.387695C26.4833 0.328125 26.3594 0.296875 26.2339 0.296387L26.2225 0.296387L0.879395 0.291504ZM16.4018 18.4858L10.7572 18.4858L9.22858 9.50342L17.7696 9.50342L16.4007 18.4868L16.4018 18.4858Z" fill="#FFFFFF" fill-opacity="1.000000" fill-rule="nonzero"/>
	</g>
</svg>
